<svg
        width="64"
        height="64"
        viewBox="0 0 64 64"
        fill="none"
        xmlns="http://www.w3.org/2000/svg"
>
    <path
            d="M56.0001 8H13.3334C12.6262 8 11.9479 8.28095 11.4478 8.78105C10.9477 9.28115 10.6667 9.95942 10.6667 10.6667V17.5733C10.6667 18.968 11.2347 20.3387 12.2214 21.3253L26.6667 35.7707V56C26.6673 56.4543 26.7837 56.901 27.0051 57.2977C27.2265 57.6945 27.5455 58.0281 27.9319 58.2671C28.3183 58.5061 28.7593 58.6425 29.2132 58.6634C29.667 58.6844 30.1187 58.5891 30.5254 58.3867L41.1921 53.0533C42.0961 52.6 42.6667 51.6773 42.6667 50.6667V35.7707L57.1121 21.3253C58.0987 20.3387 58.6667 18.968 58.6667 17.5733V10.6667C58.6667 9.95942 58.3858 9.28115 57.8857 8.78105C57.3856 8.28095 56.7073 8 56.0001 8V8ZM38.1147 32.7813C37.8666 33.0285 37.6699 33.3224 37.5358 33.646C37.4017 33.9695 37.3329 34.3164 37.3334 34.6667V49.0187L32.0001 51.6853V34.6667C32.0006 34.3164 31.9318 33.9695 31.7977 33.646C31.6636 33.3224 31.4669 33.0285 31.2187 32.7813L16.0001 17.5733V13.3333H53.3361L53.3414 17.5547L38.1147 32.7813V32.7813Z"
            fill="currentColor"
    />
</svg>
