<svg
        width="64"
        height="64"
        viewBox="0 0 64 64"
        fill="none"
        xmlns="http://www.w3.org/2000/svg"
        >
<path
        d="M51.7334 19.5733L44.4267 12.2667C43.4731 11.3709 42.2235 10.8569 40.9156 10.8225C39.6077 10.7881 38.3328 11.2356 37.3334 12.08L13.3334 36.08C12.4714 36.9492 11.9347 38.0885 11.8134 39.3067L10.6667 50.4267C10.6308 50.8172 10.6815 51.2109 10.8152 51.5797C10.9488 51.9484 11.1622 52.2831 11.4401 52.56C11.6892 52.8071 11.9847 53.0027 12.3096 53.1354C12.6345 53.2681 12.9824 53.3353 13.3334 53.3333H13.5734L24.6934 52.32C25.9115 52.1986 27.0508 51.6619 27.9201 50.8L51.9201 26.8C52.8516 25.8159 53.355 24.5027 53.32 23.1481C53.285 21.7935 52.7145 20.508 51.7334 19.5733V19.5733ZM42.6667 28.48L35.5201 21.3333L40.7201 16L48.0001 23.28L42.6667 28.48Z"
        fill="currentColor"
/>
</svg>
