<svg
        width="64"
        height="64"
        viewBox="0 0 64 64"
        fill="none"
        xmlns="http://www.w3.org/2000/svg"
>
    <path
            d="M55.2267 51.44L46.16 42.4C49.0853 38.6732 50.6726 34.0711 50.6667 29.3333C50.6667 25.114 49.4155 20.9894 47.0714 17.4812C44.7272 13.9729 41.3954 11.2386 37.4973 9.62391C33.5991 8.00924 29.3097 7.58677 25.1714 8.40992C21.0332 9.23307 17.2319 11.2649 14.2484 14.2484C11.2649 17.2319 9.23307 21.0332 8.40992 25.1714C7.58677 29.3097 8.00924 33.5991 9.62391 37.4973C11.2386 41.3954 13.9729 44.7272 17.4812 47.0714C20.9894 49.4155 25.114 50.6667 29.3333 50.6667C34.0711 50.6726 38.6732 49.0853 42.4 46.16L51.44 55.2267C51.6879 55.4766 51.9828 55.675 52.3078 55.8104C52.6328 55.9458 52.9813 56.0155 53.3333 56.0155C53.6854 56.0155 54.0339 55.9458 54.3589 55.8104C54.6838 55.675 54.9788 55.4766 55.2267 55.2267C55.4766 54.9788 55.675 54.6838 55.8104 54.3589C55.9458 54.0339 56.0155 53.6854 56.0155 53.3333C56.0155 52.9813 55.9458 52.6328 55.8104 52.3078C55.675 51.9828 55.4766 51.6879 55.2267 51.44V51.44ZM13.3333 29.3333C13.3333 26.1688 14.2717 23.0754 16.0298 20.4442C17.7879 17.813 20.2868 15.7623 23.2104 14.5513C26.134 13.3403 29.3511 13.0234 32.4548 13.6408C35.5585 14.2581 38.4094 15.782 40.6471 18.0196C42.8847 20.2573 44.4085 23.1082 45.0259 26.2119C45.6433 29.3156 45.3264 32.5327 44.1154 35.4563C42.9044 38.3799 40.8537 40.8788 38.2225 42.6369C35.5913 44.395 32.4978 45.3333 29.3333 45.3333C25.0899 45.3333 21.0202 43.6476 18.0196 40.6471C15.0191 37.6465 13.3333 33.5768 13.3333 29.3333Z"
            fill="currentColor"
    />
</svg>
