<svg
        width="64"
        height="64"
        viewBox="0 0 64 64"
        fill="none"
        xmlns="http://www.w3.org/2000/svg"
>
    <path
            d="M34.6239 40C34.6239 40.579 34.8124 41.1423 35.1609 41.6048C35.5093 42.0672 35.9989 42.4037 36.5555 42.5633C37.1121 42.7229 37.7055 42.6971 38.2461 42.4896C38.7867 42.2821 39.2451 41.9043 39.5519 41.4133L46.7199 34.248C46.9675 34.0002 47.1639 33.7061 47.2978 33.3825C47.4317 33.0588 47.5006 32.7119 47.5005 32.3617C47.5004 32.0114 47.4312 31.6646 47.2971 31.3411C47.1629 31.0175 46.9664 30.7235 46.7186 30.476C46.4709 30.2284 46.1767 30.032 45.8531 29.8981C45.5295 29.7642 45.1826 29.6953 44.8323 29.6954C44.4821 29.6955 44.1353 29.7647 43.8117 29.8988C43.4882 30.033 43.1942 30.2295 42.9466 30.4773L39.9599 33.464V13.3333C39.9599 12.626 39.679 11.9478 39.1789 11.4477C38.6788 10.9476 38.0005 10.6666 37.2933 10.6666C36.586 10.6666 35.9078 10.9476 35.4077 11.4477C34.9076 11.9478 34.6266 12.626 34.6266 13.3333V40H34.6239ZM29.3759 24C29.3759 23.4209 29.1875 22.8576 28.839 22.3952C28.4905 21.9327 28.001 21.5963 27.4444 21.4366C26.8878 21.277 26.2944 21.3029 25.7538 21.5103C25.2132 21.7178 24.7548 22.0956 24.4479 22.5866L17.2826 29.752C17.0279 29.998 16.8248 30.2922 16.685 30.6175C16.5452 30.9429 16.4717 31.2928 16.4686 31.6469C16.4655 32.001 16.533 32.3521 16.6671 32.6798C16.8012 33.0076 16.9992 33.3053 17.2496 33.5557C17.4999 33.8061 17.7977 34.0041 18.1254 34.1382C18.4531 34.2722 18.8043 34.3397 19.1583 34.3366C19.5124 34.3336 19.8623 34.26 20.1877 34.1202C20.513 33.9805 20.8073 33.7773 21.0533 33.5226L24.0426 30.536V50.6666C24.0426 51.3739 24.3236 52.0522 24.8237 52.5522C25.3238 53.0523 26.002 53.3333 26.7093 53.3333C27.4165 53.3333 28.0948 53.0523 28.5949 52.5522C29.095 52.0522 29.3759 51.3739 29.3759 50.6666V24Z"
            fill="currentColor"
    />
</svg>
