<svg
        width="64"
        height="64"
        viewBox="0 0 64 64"
        fill="none"
        xmlns="http://www.w3.org/2000/svg"
>
    <path
            d="M16.4988 21.3334H47.4988L45.6455 51C45.5607 52.3541 44.963 53.625 43.9742 54.5539C42.9853 55.4828 41.6796 56 40.3228 56H23.6775C22.3208 56 21.015 55.4828 20.0262 54.5539C19.0373 53.625 18.4396 52.3541 18.3548 51L16.4988 21.3334ZM50.6668 13.3334V18.6667H13.3335V13.3334H21.3335V10.6667C21.3335 9.25222 21.8954 7.89566 22.8956 6.89547C23.8958 5.89528 25.2523 5.33337 26.6668 5.33337H37.3335C38.748 5.33337 40.1045 5.89528 41.1047 6.89547C42.1049 7.89566 42.6668 9.25222 42.6668 10.6667V13.3334H50.6668ZM26.6668 13.3334H37.3335V10.6667H26.6668V13.3334Z"
            fill="currentColor"
    />
</svg>
