<?xml version="1.0" standalone="no"?>
<!DOCTYPE svg PUBLIC "-//W3C//DTD SVG 20010904//EN"
 "http://www.w3.org/TR/2001/REC-SVG-20010904/DTD/svg10.dtd">
<svg version="1.0" xmlns="http://www.w3.org/2000/svg"
 width="700.000000pt" height="700.000000pt" viewBox="0 0 700.000000 700.000000"
 preserveAspectRatio="xMidYMid meet">
<metadata>
Created by potrace 1.14, written by Peter Selinger 2001-2017
</metadata>
<g transform="translate(0.000000,700.000000) scale(0.100000,-0.100000)"
fill="#000000" stroke="none">
<path d="M203 6989 c-41 -15 -45 -39 -44 -293 0 -132 1 -891 1 -1685 1 -1663
-12 -1470 114 -1596 81 -81 136 -106 228 -106 122 0 185 38 562 337 446 354
613 486 991 782 193 152 360 286 372 299 29 31 38 65 23 94 -7 12 -38 49 -69
83 -31 34 -97 108 -146 166 -49 58 -98 114 -109 125 -60 64 -61 149 -2 213 55
61 34 59 776 77 110 3 608 16 745 20 347 11 389 10 432 -14 47 -27 71 -70 68
-126 -3 -53 -9 -81 -60 -270 -24 -88 -60 -223 -80 -300 -21 -77 -78 -288 -127
-470 -50 -181 -92 -338 -93 -348 -2 -9 -6 -21 -9 -25 -6 -11 -54 -199 -61
-242 -15 -91 -37 -139 -79 -170 -55 -41 -139 -46 -186 -12 -31 23 -150 176
-233 302 -35 52 -78 107 -96 123 -63 53 -141 35 -234 -56 -56 -54 -120 -111
-157 -139 -19 -15 -118 -93 -220 -173 -102 -80 -200 -158 -219 -173 -19 -15
-105 -82 -190 -150 -86 -68 -169 -133 -186 -146 -16 -13 -102 -81 -190 -150
-88 -70 -171 -136 -185 -146 -14 -11 -38 -31 -55 -44 -16 -13 -91 -72 -165
-131 -396 -312 -647 -609 -846 -1000 -81 -161 -102 -209 -156 -365 -29 -83
-102 -354 -113 -417 -3 -18 -10 -44 -15 -59 -24 -63 -29 -126 -31 -429 -3
-357 -2 -360 61 -369 19 -4 1510 -5 3314 -4 l3278 2 15 23 c29 44 0 87 -200
293 -73 75 -213 221 -312 324 -306 319 -334 348 -428 446 -50 52 -147 154
-216 226 -107 110 -202 209 -535 558 -251 263 -393 412 -453 473 -73 73 -89
108 -60 131 6 5 73 26 147 45 75 20 187 55 250 77 63 23 130 47 148 54 17 6
32 14 32 18 0 5 6 8 13 8 24 0 295 148 352 192 6 4 47 35 92 69 159 118 342
306 457 472 142 206 255 463 310 708 42 187 51 286 50 514 -1 173 -13 287 -45
440 -6 28 -12 59 -15 70 -43 216 -175 542 -298 735 -102 159 -304 387 -431
488 -105 82 -114 89 -218 157 -285 186 -697 341 -1107 414 -129 24 -143 26
-220 42 -65 14 -3901 22 -3937 8z"/>
</g>
</svg>
