<svg width="375" height="302" viewBox="0 0 375 302" fill="none" xmlns="http://www.w3.org/2000/svg">
<g clip-path="url(#clip0_139_103)">
<g opacity="0.6">
<path d="M95.4687 131.256C98.0441 96.734 99.0183 62.2679 102.75 27.8108C95.1833 38.7861 86.9459 49.2999 79.5537 60.3966" stroke="#EAEAEA" stroke-width="29.3155" stroke-miterlimit="1.5" stroke-linecap="round" stroke-linejoin="round"/>
<path d="M65.5332 145.268C85.5822 136.579 105.106 126.485 124.92 117.244" stroke="#EAEAEA" stroke-width="29.3155" stroke-miterlimit="1.5" stroke-linecap="round" stroke-linejoin="round"/>
<path d="M201.505 20.5325C211.916 24.627 215.3 39.3402 214.954 49.1181C214.144 72.0521 198.37 108.04 169.894 102.246C157.882 99.8013 153.314 83.642 153.822 73.2039C154.845 52.1806 167.327 18.082 193.045 18.2671" stroke="#EAEAEA" stroke-width="29.3155" stroke-miterlimit="1.5" stroke-linecap="round" stroke-linejoin="round"/>
<path d="M110.534 222.143C137.279 200.323 160.638 173.956 185.437 150.063C217.426 119.239 251.017 90.1949 283.428 59.8337" stroke="#EAEAEA" stroke-width="29.3155" stroke-miterlimit="1.5" stroke-linecap="round" stroke-linejoin="round"/>
<path d="M205.491 269.271C205.308 248.822 209.314 228.499 209.539 208.018C209.595 202.95 211.369 187.063 207.869 183.055C206.768 181.792 206.381 186.058 205.643 187.564C204.374 190.159 203.183 192.787 201.87 195.361C197.962 203.023 193.182 210.209 188.533 217.433" stroke="#EAEAEA" stroke-width="29.3155" stroke-miterlimit="1.5" stroke-linecap="round" stroke-linejoin="round"/>
<path d="M164.665 282.08C189.417 275.375 213.371 267.118 238.348 261.071" stroke="#EAEAEA" stroke-width="29.3155" stroke-miterlimit="1.5" stroke-linecap="round" stroke-linejoin="round"/>
<path d="M318.912 163.917C333.672 182.858 325.115 216.478 312.034 233.593C305.154 242.597 292.096 252.835 280.644 245.571C248.532 225.207 277.674 157.156 313.128 160.51" stroke="#EAEAEA" stroke-width="29.3155" stroke-miterlimit="1.5" stroke-linecap="round" stroke-linejoin="round"/>
</g>
<path d="M90.5476 216.431C88.7738 211.934 87.6714 207.081 87.0503 202.287C81.1493 156.734 138.449 196.035 154.046 175.226C167.514 157.256 146.452 120.498 166.668 95.4005C186.255 71.0842 214.711 91.8345 236.564 80.5973C252.676 72.3121 249.47 57.8601 254.564 43.4782C257.784 34.3854 263.183 28.7734 268.216 20.8615" stroke="#50545E" stroke-width="6" stroke-miterlimit="1.5" stroke-linecap="round" stroke-linejoin="round"/>
<path d="M270.986 38.5369C269.189 34.1693 269.227 29.0462 269.479 24.4442C269.628 21.7207 269.741 18.9062 270.639 16.3093C264.776 21.5666 258.869 25.3519 251.067 26.9829" stroke="#50545E" stroke-width="6" stroke-miterlimit="1.5" stroke-linecap="round" stroke-linejoin="round"/>
</g>
<defs>
<clipPath id="clip0_139_103">
<rect width="375" height="302" fill="white"/>
</clipPath>
</defs>
</svg>
